<svg id="Layer_1" enable-background="new 0 0 496 496" height="512" viewBox="0 0 496 496" width="512" xmlns="http://www.w3.org/2000/svg"><path d="m306.924 69c-43.531 0-83.154 23.398-104.346 60.613-69.956-12.024-128.6 46.919-123.455 109.691-44.122 2.933-79.123 39.764-79.123 84.615 0 46.761 38.042 84.803 84.803 84.803h214.859c73.654 0 124.63-73.703 99.174-142.373 65.262-77.324 10.295-197.349-91.912-197.349zm0 32c69.486 0 111.288 76.999 74.511 135.057-23.527-28.687-60.146-43.088-97.188-37.667-9.003-25.442-27.333-46.062-50.585-58.248 16.15-24.19 43.458-39.142 73.262-39.142zm-7.261 275.723h-214.86c-29.115 0-52.803-23.688-52.803-52.804 0-32.896 29.982-58.054 62.672-51.885 11.03 2.082 20.725-7.571 18.706-18.603-1.045-5.707-2.516-15.573-2.516-19.64 0-40.653 33.073-73.726 73.726-73.726 35.548 0 66.033 25.32 72.488 60.205 1.745 9.432 11.356 15.225 20.513 12.358 47.472-14.862 95.799 20.748 95.799 70.369.001 40.652-33.073 73.726-73.725 73.726zm196.337-187.723c0 8.836-7.164 16-16 16h-18c-8.836 0-16-7.164-16-16s7.164-16 16-16h18c8.836 0 16 7.164 16 16zm-205.152-155v-18c0-8.836 7.164-16 16-16s16 7.164 16 16v18c0 8.836-7.164 16-16 16s-16-7.164-16-16zm149.719 21.325c6.249 6.248 6.249 16.379 0 22.627l-12.728 12.728c-3.124 3.124-7.219 4.686-11.313 4.686-14.125 0-21.424-17.204-11.313-27.314l12.728-12.728c6.247-6.247 16.378-6.247 22.626.001zm-267.394 22.735c-6.249-6.249-6.249-16.379 0-22.627 6.248-6.249 16.378-6.249 22.627 0l12.728 12.728c10.112 10.112 2.809 27.314-11.313 27.314-4.095 0-8.189-1.562-11.313-4.686zm-97.173 362.94v10c0 8.836-7.164 16-16 16s-16-7.164-16-16v-10c0-8.836 7.164-16 16-16s16 7.164 16 16zm70 0v39c0 8.836-7.164 16-16 16s-16-7.164-16-16v-39c0-8.836 7.164-16 16-16s16 7.164 16 16zm70 0v10c0 8.836-7.164 16-16 16s-16-7.164-16-16v-10c0-8.836 7.164-16 16-16s16 7.164 16 16zm70 0v39c0 8.836-7.164 16-16 16s-16-7.164-16-16v-39c0-8.836 7.164-16 16-16s16 7.164 16 16zm70 0v10c0 8.836-7.164 16-16 16s-16-7.164-16-16v-10c0-8.836 7.164-16 16-16s16 7.164 16 16z"/></svg>